<?xml version="1.0" encoding="utf-8"?>
<!-- Generator: Adobe Illustrator 23.1.0, SVG Export Plug-In . SVG Version: 6.00 Build 0)  -->
<svg version="1.1" id="Layer_1" xmlns="http://www.w3.org/2000/svg" xmlns:xlink="http://www.w3.org/1999/xlink" x="0px" y="0px"
	 viewBox="0 0 1000 301.7" style="enable-background:new 0 0 1000 301.7;" xml:space="preserve">
<style type="text/css">
	.st0{fill:#DC3B6A;}
	.st1{fill:#DBC83B;}
	.st2{fill:#A153A0;}
	.st3{fill:#62BE70;}
	.st4{fill:#5D54A4;}
	.st5{fill:#5FC5C0;}
	.st6{fill:#4493D0;}
</style>
<g>
	<path d="M13.5,278.5V161.2c0-1.8,0.8-3.4,2.5-4.7c1.7-1.3,3.8-1.9,6.4-1.9c2.4,0,4.4,0.7,6.1,2c1.7,1.3,2.5,2.9,2.5,4.8v12.9
		c3.3-6.2,8.2-11.3,14.6-15.3c6.4-4,13.8-6,22.3-6c8.9,0,16.8,2.6,23.8,7.7c7,5.1,12.2,11.9,15.5,20.3c4.6-9.1,10.7-16.1,18.3-20.8
		c7.6-4.8,15.5-7.1,23.8-7.1c12.6,0,23.5,4.7,32.7,14.1c9.2,9.4,13.9,22,13.9,37.7v73.8c0,1.9-0.9,3.5-2.6,5
		c-1.8,1.5-3.9,2.2-6.5,2.2c-2.4,0-4.5-0.7-6.2-2.2c-1.8-1.5-2.6-3.1-2.6-5v-73.6c0-10.9-3.2-19.5-9.6-25.7
		c-6.4-6.3-13.7-9.4-22-9.4c-8.5,0-16,3.2-22.6,9.5c-6.6,6.4-9.8,14.5-9.8,24.5v75c0,4.6-3.1,6.9-9.2,6.9c-5.9,0-8.9-2.3-8.9-6.9
		v-74.7c0-9.8-3.1-17.9-9.3-24.5c-6.2-6.5-13.6-9.8-22.3-9.8c-8.7,0-16.3,3.2-22.9,9.5c-6.6,6.4-9.8,14.9-9.8,25.6v73.6
		c0,1.8-0.9,3.5-2.8,5c-1.9,1.5-4,2.2-6.4,2.2c-2.4,0-4.5-0.7-6.2-2.2C14.3,282,13.5,280.3,13.5,278.5z"/>
	<path d="M229.8,278.5V161.2c0-1.8,0.8-3.4,2.5-4.7c1.7-1.3,3.8-1.9,6.4-1.9c2.6,0,4.8,0.7,6.5,1.9c1.8,1.3,2.6,2.9,2.6,4.7v117.3
		c0,1.9-0.9,3.5-2.8,5c-1.9,1.5-4,2.2-6.4,2.2c-2.4,0-4.5-0.7-6.2-2.2C230.6,282,229.8,280.3,229.8,278.5z"/>
	<path d="M285,278.5V124.9c0-1.8,0.8-3.4,2.5-4.7c1.7-1.3,3.8-1.9,6.4-1.9c2.6,0,4.8,0.7,6.5,1.9c1.8,1.3,2.6,2.9,2.6,4.7v153.6
		c0,1.9-0.9,3.5-2.6,5c-1.8,1.5-3.9,2.2-6.5,2.2c-2.4,0-4.5-0.7-6.2-2.2C285.8,282,285,280.3,285,278.5z"/>
	<path d="M340.1,278.5V80.8c0-1.8,0.8-3.4,2.5-4.7c1.7-1.3,3.8-1.9,6.4-1.9c2.6,0,4.8,0.7,6.5,1.9c1.8,1.3,2.6,2.9,2.6,4.7v135
		l67.7-60.2c1.8-1.1,3.2-1.7,4.2-1.7c2.2,0,4.3,0.9,6.2,2.6c1.9,1.8,2.9,3.7,2.9,6s-0.7,3.9-1.9,5l-40.8,35.8l48,70.2
		c0.7,1.5,1.1,2.8,1.1,3.9c0,2-1,4.1-3.1,6.1c-2,2-4.3,3.1-6.7,3.1c-2.2,0-4.1-1.1-5.5-3.3l-46.6-68.5l-25.5,22.5v41.3
		c0,1.9-0.9,3.5-2.6,5c-1.8,1.5-3.9,2.2-6.5,2.2c-2.4,0-4.5-0.7-6.2-2.2C341,282,340.1,280.3,340.1,278.5z"/>
	<path d="M457.8,162.3c0-2.2,1.2-4.2,3.5-5.8c2.3-1.7,4.8-2.5,7.3-2.5c3.3,0,5.5,1.4,6.7,4.2l36.6,99.8l36.6-98.7
		c1.5-3.5,3.6-5.3,6.4-5.3c2.2,0,4.6,0.8,7.2,2.5c2.6,1.7,3.9,3.5,3.9,5.5c0,1.5-0.4,3-1.1,4.4l-44.6,117c-1.1,3-3.9,4.4-8.3,4.4
		c-4.4,0-7.2-1.5-8.3-4.4l-44.6-117C458.1,165.3,457.8,164,457.8,162.3z"/>
	<path d="M587.6,278.5V161.2c0-1.8,0.8-3.4,2.5-4.7c1.7-1.3,3.8-1.9,6.4-1.9c2.6,0,4.8,0.7,6.5,1.9c1.8,1.3,2.6,2.9,2.6,4.7v117.3
		c0,1.9-0.9,3.5-2.8,5c-1.9,1.5-4,2.2-6.4,2.2c-2.4,0-4.5-0.7-6.2-2.2C588.4,282,587.6,280.3,587.6,278.5z"/>
	<path d="M640.5,278.5V81c0-1.8,0.8-3.4,2.5-4.7c1.7-1.3,3.8-1.9,6.4-1.9c2.6,0,4.8,0.7,6.5,1.9c1.8,1.3,2.6,2.9,2.6,4.7v93.1
		c3.3-6.2,8.2-11.3,14.6-15.3c6.4-4,13.8-6,22.3-6c13.7,0,25.4,5.1,35.1,15.3c9.7,10.2,14.6,22.4,14.6,36.6V235
		c0,13.9-4.9,26.1-14.8,36.7c-9.9,10.6-21.3,15.9-34.2,15.9c-8.3,0-16-2.1-23-6.3c-7-4.2-12-9.3-15-15.3v12.4c0,1.9-0.8,3.6-2.5,5.1
		c-1.7,1.5-3.7,2.2-6.1,2.2c-2.4,0-4.5-0.7-6.2-2.2C641.4,282,640.5,280.3,640.5,278.5z M658.5,243.4c0,5,3.5,10.8,10.4,17.4
		c6.9,6.6,14.8,9.9,23.7,9.9c9.2,0,17.3-3.7,24.1-11c6.8-7.4,10.3-15.6,10.3-24.8v-30.1c0-9-3.4-17.1-10.3-24.3
		c-6.8-7.2-15-10.8-24.4-10.8c-8.9,0-16.7,3.2-23.6,9.7c-6.8,6.4-10.3,14.9-10.3,25.4V243.4z"/>
	<path d="M769.7,235v-31.1c0-13.9,5.2-25.8,15.5-35.9c10.4-10.1,22.8-15.1,37.4-15.1c14,0,26.2,4.8,36.5,14.4
		c10.3,9.6,15.4,21.7,15.4,36.1c0,5.2-0.6,9.3-1.8,12.4c-1.2,3.1-3.1,5.3-5.8,6.6c-2.7,1.3-5.1,2.1-7.3,2.5
		c-2.2,0.4-5.3,0.6-9.2,0.6h-62.7v10.3c0,10.9,3.9,19.6,11.8,26.2c7.9,6.6,18,9.8,30.4,9.8c6.3,0,11.8-0.9,16.5-2.8
		c4.7-1.8,8.3-3.7,10.8-5.5c2.5-1.8,4.5-2.8,6-2.8c2,0,3.8,1,5.4,2.9c1.6,1.9,2.4,3.8,2.4,5.7c0,3.9-4,7.9-11.9,12.1
		c-8,4.2-17.8,6.2-29.7,6.2c-17.6,0-31.9-4.9-43-14.6C775.3,263.4,769.7,250.7,769.7,235z M787.8,212.2h55.5c5.5,0,9.2-0.6,11.1-1.8
		c1.8-1.2,2.8-3.7,2.8-7.6c0-9.2-3.3-17.3-9.8-24.3c-6.6-7-14.8-10.5-24.8-10.5c-9.6,0-17.8,3.3-24.5,9.9
		c-6.8,6.6-10.1,14.5-10.1,23.7V212.2z"/>
	<path d="M893.4,267.7c0-1.8,0.6-3.7,1.9-5.5c1.3-1.8,2.8-2.8,4.4-2.8c1.3,0,3.3,1.1,6.1,3.2c2.8,2.1,6.7,4.3,11.9,6.5
		c5.2,2.2,11.4,3.3,18.6,3.3c9.8,0,17-1.8,21.6-5.5c4.6-3.7,6.9-8.4,6.9-14.1c0-6.7-2.4-12-7.1-16c-4.7-4-10.4-7-17.1-9
		c-6.7-2-13.4-4.1-20.1-6.1c-6.7-2-12.5-5.6-17.2-10.7c-4.7-5.1-7.1-11.9-7.1-20.4c0-10.2,3.6-19,11-26.5
		c7.3-7.5,18.3-11.2,32.9-11.2c9.1,0,17.5,1.4,25.4,4.3c7.9,2.9,11.8,6,11.8,9.3c0,1.9-0.7,3.9-2.2,6.1c-1.5,2.2-3.2,3.3-5.3,3.3
		c-0.6,0-4-1.3-10.3-3.9c-6.3-2.6-12.7-3.9-19.1-3.9c-9.2,0-16.2,2.2-20.8,6.5c-4.6,4.3-6.9,9.2-6.9,14.7c0,5.6,2.4,10.1,7.2,13.3
		c4.8,3.3,10.5,5.9,17.2,7.9c6.7,2,13.4,4,20.3,6c6.8,2,12.6,6,17.2,12.1c4.6,6,6.9,13.8,6.9,23.3c0,11.1-3.9,19.8-11.8,26.2
		c-7.9,6.4-18.8,9.6-32.9,9.6c-12.2,0-22.5-2.2-30.9-6.5C897.6,276.8,893.4,272.3,893.4,267.7z"/>
	<path class="st0" d="M233.4,130.2c-5.1-3-6.8-9.5-3.8-14.5l0,0l0,0l0,0c3-5.1,9.4-6.8,14.5-3.8l0,0c5.1,3,6.8,9.5,3.8,14.5l0,0
		c-2.1,3.5-5.9,5.4-9.7,5.3l0,0C236.6,131.5,235,131.1,233.4,130.2z"/>
	<path class="st1" d="M586.5,127.7L586.5,127.7c-2.9-5.1-1.2-11.6,3.9-14.5l0,0c5.1-2.9,11.6-1.2,14.5,3.9l0,0l0,0l0,0
		c2.9,5.1,1.2,11.6-3.9,14.5l0,0c-1.8,1-3.8,1.5-5.8,1.4l0,0C591.7,132.9,588.4,131,586.5,127.7z"/>
	<path class="st2" d="M276.9,73.2c-3.8-4.5-3.1-11.2,1.4-14.9l0,0c4.5-3.8,11.2-3.1,14.9,1.4l0,0c3.8,4.5,3.1,11.2-1.4,14.9l0,0
		c-2.1,1.8-4.7,2.6-7.3,2.5l0,0C281.6,76.8,278.8,75.6,276.9,73.2z"/>
	<path class="st3" d="M543.1,75.6c-4.5-3.8-5-10.5-1.3-15l0,0c3.8-4.5,10.5-5,15-1.3l0,0c4.5,3.8,5,10.5,1.3,15l0,0
		c-2.2,2.6-5.4,3.9-8.6,3.7l0,0C547.2,78,544.9,77.2,543.1,75.6z"/>
	<path class="st4" d="M337.1,34.4c-2-5.5,0.9-11.6,6.4-13.6l0,0c5.5-2,11.6,0.9,13.6,6.4l0,0c2,5.5-0.9,11.6-6.4,13.6l0,0
		c-1.3,0.5-2.7,0.7-4.1,0.6l0,0C342.5,41.3,338.6,38.6,337.1,34.4z"/>
	<path class="st5" d="M484.4,41.4c-5.5-2-8.3-8.1-6.3-13.6l0,0c2-5.5,8.1-8.3,13.6-6.3l0,0c0,0,0,0,0,0l0,0c5.5,2,8.3,8.1,6.3,13.6
		l0,0c-1.6,4.5-6,7.1-10.5,6.9l0,0C486.5,42,485.5,41.8,484.4,41.4z"/>
	<path class="st6" d="M407,18.7c0-5.9,4.8-10.6,10.7-10.6l0,0c5.9,0,10.6,4.8,10.6,10.7l0,0c0,5.9-4.8,10.6-10.6,10.6l0,0
		c-0.2,0-0.3,0-0.5,0l0,0C411.5,29.1,407,24.4,407,18.7z"/>
</g>
</svg>
